<?xml version="1.0" encoding="UTF-8" standalone="no"?>
<!-- Created with Inkscape (http://www.inkscape.org/) -->

<svg
   width="210mm"
   height="297mm"
   viewBox="0 0 210 297"
   version="1.1"
   id="svg5"
   inkscape:version="1.1.2 (0a00cf5339, 2022-02-04)"
   sodipodi:docname="drawing.svg"
   xmlns:inkscape="http://www.inkscape.org/namespaces/inkscape"
   xmlns:sodipodi="http://sodipodi.sourceforge.net/DTD/sodipodi-0.dtd"
   xmlns="http://www.w3.org/2000/svg"
   xmlns:svg="http://www.w3.org/2000/svg">
  <sodipodi:namedview
     id="namedview7"
     pagecolor="#ffffff"
     bordercolor="#666666"
     borderopacity="1.0"
     inkscape:pageshadow="2"
     inkscape:pageopacity="0.0"
     inkscape:pagecheckerboard="0"
     inkscape:document-units="mm"
     showgrid="false"
     inkscape:zoom="0.32982627"
     inkscape:cx="-116.72812"
     inkscape:cy="653.37427"
     inkscape:window-width="1366"
     inkscape:window-height="704"
     inkscape:window-x="0"
     inkscape:window-y="0"
     inkscape:window-maximized="1"
     inkscape:current-layer="layer1"
     inkscape:snap-global="false" />
  <defs
     id="defs2">
    <inkscape:perspective
       sodipodi:type="inkscape:persp3d"
       inkscape:vp_x="0 : 148.5 : 1"
       inkscape:vp_y="0 : 1000 : 0"
       inkscape:vp_z="210 : 148.5 : 1"
       inkscape:persp3d-origin="105 : 99 : 1"
       id="perspective7749" />
  </defs>
  <g
     inkscape:label="Layer 1"
     inkscape:groupmode="layer"
     id="layer1">
    <path
       id="rect1998-5"
       style="fill:none;fill-opacity:1;stroke:#000000;stroke-width:1.7;stroke-linecap:round;stroke-linejoin:round;stroke-miterlimit:4;stroke-dasharray:none;stroke-dashoffset:0;stroke-opacity:1;paint-order:markers stroke fill"
       d="m 159.19073,132.36362 c -0.25305,-0.0431 -0.41805,0.2098 -0.44028,0.87178 -0.53516,15.93168 -30.46394,22.83013 -56.39398,22.83013 -26.832775,0 -59.429052,-6.9515 -58.709073,-22.07824 0.06093,-1.28011 -2.596544,2.22753 -2.826184,6.46989 -0.09968,1.84143 0.650039,3.5199 2.044837,5.05086 -0.06712,-0.0295 -0.133887,-0.0578 -0.201022,-0.0873 6.3999,37.55592 12.328842,77.39522 19.468063,108.61818 21.09911,13.60252 57.437359,16.01394 76.452179,-0.078 9.87032,-34.15041 16.29317,-72.50438 22.47718,-109.20109 -0.0729,0.0338 -0.14622,0.065 -0.21911,0.0987 1.41264,-1.4984 2.19832,-3.02415 2.19832,-4.5372 0,-2.03303 -2.75438,-7.77107 -3.85093,-7.95765 z" />
    <ellipse
       style="fill:#02091c;fill-opacity:1;stroke-width:7.39765;stroke-linecap:round;stroke-linejoin:round;stroke-opacity:0.63355;paint-order:markers stroke fill"
       id="path904"
       cx="143.71838"
       cy="251.00035"
       rx="59.370049"
       ry="19.803993"
       transform="matrix(0.9965466,0.08303533,-0.08414512,0.99645351,0,0)" />
    <path
       id="path12199"
       style="opacity:1;fill:#ff2d36;fill-opacity:1;stroke-width:8.53506;stroke-linecap:round;stroke-linejoin:round;stroke-opacity:0.63355;paint-order:markers stroke fill"
       d="m 158.66159,134.7566 c -3.00223,12.46242 -25.86661,21.79785 -57.77467,21.79785 -31.908065,0 -56.749939,-9.80292 -57.774676,-21.79785 -2.097445,-24.55138 34.457239,-72.099058 32.134471,-96.468015 8.489664,10.84883 3.964738,31.095022 5.088722,40.744774 4.937846,-17.328087 23.885093,-57.909007 22.338903,-66.786192 11.00662,11.91485 13.16515,44.45701 20.79206,65.064864 3.31009,-18.3291 7.92456,-29.073285 18.0451,-35.225781 -8.60619,25.466502 16.69848,63.75407 17.15009,92.67035 z"
       sodipodi:nodetypes="csscccccc" />
    <ellipse
       style="opacity:1;fill:#000000;fill-opacity:1;stroke-width:9.86801;stroke-linecap:round;stroke-linejoin:round;stroke-opacity:0.63355;paint-order:markers stroke fill"
       id="path11641"
       cx="101.03905"
       cy="148.95428"
       rx="54.125923"
       ry="19.115814" />
    <path
       id="rect1998"
       style="opacity:1;fill:#fffde6;fill-opacity:1;stroke-width:0.92;stroke-linecap:round;stroke-linejoin:round;stroke-opacity:1;paint-order:markers stroke fill;stroke:none;stroke-miterlimit:4;stroke-dasharray:none"
       d="m 42.312233,145.27817 c 42.896365,18.90011 81.916997,16.25715 118.397597,-0.66127 -6.18401,36.69671 -12.60658,75.05088 -22.4769,109.20129 -19.01482,16.09197 -55.353155,13.68072 -76.452266,0.0782 -7.139219,-31.22296 -13.068532,-71.0623 -19.468431,-108.61822 z"
       sodipodi:nodetypes="ccccc" />
    <path
       id="rect1998-6"
       style="opacity:1;fill:#bebba8;fill-opacity:1;stroke-width:9.81982;stroke-linecap:round;stroke-linejoin:round;stroke-opacity:0.63355;paint-order:markers stroke fill"
       d="m 97.261277,159.85643 c 16.649653,-0.33912 41.217923,-1.21211 63.489573,-15.40077 -6.18401,36.69671 -12.48017,75.32341 -22.35049,109.47382 -10.26715,8.08251 -24.78962,11.51741 -33.50861,10.96278 0.29338,-25.71046 1.83509,-56.5667 1.13757,-86.21559 -0.23733,-10.08752 -3.26079,-14.80248 -6.842043,-17.43593 -1.1906,-0.8755 -1.77035,-0.54252 -1.926,-1.38431 z"
       sodipodi:nodetypes="ccccssc" />
    <path
       id="path6668"
       style="opacity:1;fill:#fffce0;fill-opacity:1;stroke-width:0.56900005;stroke-linecap:round;stroke-linejoin:round;stroke-opacity:1;paint-order:markers stroke fill;stroke:none;stroke-miterlimit:4;stroke-dasharray:none"
       d="m 162.68919,140.17872 c 0,10.63435 -38.72114,21.89635 -62.32969,19.87679 -11.618963,-0.99393 -60.656782,-5.59009 -59.890783,-19.74105 0.229641,-4.24236 2.887127,-7.75005 2.826197,-6.46994 -0.719979,15.12674 31.876247,22.0781 58.709026,22.0781 25.93004,0 55.85899,-6.89835 56.39414,-22.83003 0.11859,-3.53054 4.29111,4.58393 4.29111,7.08613 z"
       sodipodi:nodetypes="sssssss" />
    <path
       id="path16244"
       style="opacity:1;fill:#fa7800;fill-opacity:1;stroke-width:10.5986;stroke-linecap:round;stroke-linejoin:round;stroke-opacity:0.63355;paint-order:markers stroke fill"
       d="m 152.76411,143.07217 c -10.38329,-6.58984 -23.53044,-13.02918 -51.87993,-13.02918 -28.659789,0.61452 -43.568835,6.95252 -51.932812,13.58805 0.275642,-1.66272 17.809547,-30.64169 19.945002,-52.041764 5.201397,8.504224 7.081513,11.603724 9.89417,15.542414 6.892182,-11.355851 19.071377,-29.021719 23.59798,-44.043505 6.85128,18.628184 17.0204,32.795933 22.18235,43.871685 4.76781,-5.93665 7.46547,-11.981368 9.71584,-15.198547 1.64558,9.478397 6.21464,34.037277 18.4774,51.310847 z"
       sodipodi:nodetypes="ccccccccc" />
    <path
       id="path16244-3"
       style="opacity:1;fill:#fffde6;fill-opacity:1;stroke-width:5.79074;stroke-linecap:round;stroke-linejoin:round;stroke-opacity:0.63355;paint-order:markers stroke fill"
       d="m 131.85358,131.0917 c -8.86002,-2.13764 -16.43714,-3.63315 -30.46967,-3.67758 -16.800405,0.31295 -22.616617,1.78088 -30.829951,3.83978 0.08478,-0.44425 0.810982,-7.71656 1.764384,-13.05975 2.55943,2.36568 3.712763,4.66949 6.388999,7.37788 0.270732,-5.16387 -0.04919,-9.17323 0.190619,-13.78294 3.426115,5.49475 10.527066,10.17231 12.175846,12.17807 5.62169,-11.22113 9.689983,-23.81492 11.125023,-32.759656 1.81042,11.780776 6.6629,27.226896 9.68883,32.867186 5.22597,-3.42638 11.35905,-11.30044 12.67822,-12.93878 0.0201,4.91595 0.25223,8.23618 2.73454,14.04948 0.32149,-0.61333 0.61715,-1.01624 0.92126,-1.58358 0.48591,2.08144 2.64963,6.28788 3.6319,7.48989 z"
       sodipodi:nodetypes="ccccccccccccc" />
    <path
       style="opacity:1;fill:#030a25;fill-opacity:1;stroke:none;stroke-width:0.306929px;stroke-linecap:butt;stroke-linejoin:miter;stroke-opacity:1"
       d="m 68.631774,177.52594 c 0.714485,-0.0226 4.983169,0.51019 5.456109,1.06614 0.87078,6.21725 -0.144472,11.31558 -0.217045,16.89098 -0.56158,4.83799 -0.84266,10.08407 -9.177851,8.04325 -2.860584,-1.06102 -5.371053,-3.45759 -4.837591,-9.87803 -0.0073,-2.53231 3.795084,-3.33706 4.172781,0.3418 0.125342,3.06183 0.481101,5.41839 2.734989,5.12426 1.362854,-0.17786 1.861699,-1.69774 1.917519,-5.40809 -0.0276,-5.87628 -0.292699,-15.90212 -0.04891,-16.18031 z"
       id="path51198"
       sodipodi:nodetypes="ccccccscc" />
    <path
       id="path53723"
       style="opacity:1;fill:#030a25;fill-opacity:1;stroke:none;stroke-width:0.306929px;stroke-linecap:butt;stroke-linejoin:miter;stroke-opacity:1"
       d="m 81.952141,182.16091 c -3.6038,7.49824 -9.208454,22.20781 -9.122007,22.51678 -0.220073,0.28549 4.746565,1.89829 5.071135,1.51264 0.902832,-2.01467 2.208155,-5.48868 2.391896,-5.44801 0.127536,0.51758 12.051622,1.42017 12.208572,1.9863 0.36272,0.0118 1.80082,5.09629 2.59865,5.85832 2.0564,0.0396 4.75001,0.10313 5.343513,-0.25591 0.25281,-1.44976 -6.584053,-16.97656 -9.918343,-25.49915 -1.04688,-1.48571 -2.267454,-1.5026 -4.388582,-1.75426 -1.931924,-0.22923 -2.987779,0.048 -4.184834,1.08329 z m 3.932302,4.48122 c 1.045553,0.32585 4.487674,9.96004 4.438494,10.65982 -2.572368,-0.10638 -7.378954,-0.70583 -8.142638,-1.33562 -0.295522,-0.30635 2.732742,-8.91899 3.704144,-9.3242 z"
       sodipodi:nodetypes="ccccccccsccccc" />
    <path
       id="path53723-7"
       style="opacity:1;fill:#030a25;fill-opacity:1;stroke:none;stroke-width:0.306929px;stroke-linecap:butt;stroke-linejoin:miter;stroke-opacity:1"
       d="m 135.97238,179.96419 c 3.68544,7.45845 7.32199,21.80381 7.23893,22.11371 0.22318,0.28307 -4.8662,1.93721 -5.19496,1.55513 -0.92478,-2.00468 -1.83311,-5.10064 -2.0164,-5.05795 -0.12187,0.51893 -11.61507,1.79517 -11.76584,2.36297 -0.36255,0.0158 -1.78405,5.53015 -2.57352,6.30083 -2.05585,0.0619 -4.37451,0.34406 -4.97187,-0.008 -0.26863,-1.44693 6.93628,-17.9344 10.17732,-26.49287 1.03061,-1.49707 2.35997,-1.8057 4.47822,-2.08052 1.92932,-0.25033 2.75324,-0.34874 3.96154,0.67338 z m -4.78162,4.14302 c -1.04194,0.33723 -4.59873,10.64479 -4.5419,11.344 2.57105,-0.13446 7.58524,-1.31796 8.342,-1.95605 0.29217,-0.30957 -2.82434,-8.99338 -3.8001,-9.38795 z"
       sodipodi:nodetypes="ccccccccscccccc" />
    <path
       style="opacity:1;fill:#030a25;fill-opacity:1;stroke:none;stroke-width:0.306929px;stroke-linecap:butt;stroke-linejoin:miter;stroke-opacity:1"
       d="m 95.659417,181.85327 c -0.0838,-0.56743 6.027983,0.18957 6.607183,0.31041 0.62171,0.74181 6.33066,18.51084 7.0728,18.72876 0.36052,-0.33157 6.93158,-19.19244 7.22418,-19.52519 0.28835,-0.4634 4.25763,-0.74596 5.98314,-0.74915 0.53567,0.39126 -8.41515,24.62841 -10.72139,27.48918 -4.47461,0.76279 -4.22285,0.22526 -5.60175,0.11206 -4.84194,-8.93112 -10.428003,-25.53553 -10.564163,-26.36607 z"
       id="path57786"
       sodipodi:nodetypes="cccccccc" />
    <path
       style="opacity:1;fill:#dc2d27;fill-opacity:1;stroke:none;stroke-width:0.306929px;stroke-linecap:butt;stroke-linejoin:miter;stroke-opacity:1"
       d="m 77.917081,213.49593 5.091993,0.71436 -0.03179,1.40401 -3.313508,0.12883 0.03677,1.97173 3.215937,0.43617 -0.0093,1.58886 -3.182458,-0.37872 -0.159205,3.74962 -1.653014,-0.23161 z"
       id="path67503"
       sodipodi:nodetypes="ccccccccccc" />
    <path
       style="fill:#dc2d27;fill-opacity:1;stroke:none;stroke-width:0.306929px;stroke-linecap:butt;stroke-linejoin:miter;stroke-opacity:1"
       d="m 86.287131,214.87247 1.668756,0.047 0.131306,7.86946 2.727464,0.20262 -0.11032,1.80116 -4.428006,-0.67226 z"
       id="path70760" />
    <path
       id="path71026"
       style="opacity:1;fill:#dc2d27;fill-opacity:1;stroke:none;stroke-width:0.30693px;stroke-linecap:butt;stroke-linejoin:miter;stroke-opacity:1"
       d="m 97.979157,215.73545 -1.46032,0.15646 -2.79354,8.68995 1.8176,0.19663 0.39445,-2.24443 3.1898,0.33211 0.49936,2.46084 1.882943,-0.0666 z m -0.66233,2.32047 1.04155,3.28192 -1.79656,-0.0351 z"
       sodipodi:nodetypes="ccccccccccccc" />
    <path
       style="opacity:1;fill:#dc2d27;fill-opacity:1;stroke:none;stroke-width:0.306929px;stroke-linecap:butt;stroke-linejoin:miter;stroke-opacity:1"
       d="m 104.24047,225.3188 1.66941,-0.0637 -0.0383,-5.71747 2.10291,5.69436 1.33629,-0.0549 2.4842,-7.06384 0.13482,6.73271 1.65924,0.0251 -0.066,-9.57521 -2.35872,0.24579 -2.56781,6.75694 -2.4873,-6.61352 -1.88472,0.24111 z"
       id="path74563"
       sodipodi:nodetypes="cccccccccccccc" />
    <path
       style="opacity:1;fill:#dc2d27;fill-opacity:1;stroke:none;stroke-width:0.306929px;stroke-linecap:butt;stroke-linejoin:miter;stroke-opacity:1"
       d="m 117.60192,214.65442 -0.0205,9.3404 5.07144,-0.42945 0.0481,-1.47408 -3.34011,0.26055 -0.0326,-2.65457 3.27875,-0.30879 -0.0319,-1.41653 -3.20806,0.36542 -0.0318,-2.24464 3.39022,-0.5131 -0.0684,-1.4751 z"
       id="path76050"
       sodipodi:nodetypes="ccccccccccccc" />
  </g>
</svg>
